<svg id="logo-svg" width="100%" version="1.1" xmlns="http://www.w3.org/2000/svg" viewBox="0 0 298 298">
          <g fill="rgb(000,000,000)" id="hasi">
            <path d="M 0031,0147 H 0079 V 0163 H 0031 Z "/>
            <path d="M 0031,0179 H 0079 V 0195 H 0031 Z "/>
            <path d="M 0095,0083 H 0111 V 0115 H 0095 Z "/>
            <path d="M 0095,0131 H 0127 V 0163 H 0111 V 0147 H 0095 Z "/>
            <path d="M 0111,0051 H 0127 V 0083 H 0111 Z "/>
            <path d="M 0127,0019 H 0143 V 0051 H 0127 Z "/>
            <path d="M 0127,0083 H 0143 V 0115 H 0127 Z "/>
            <path d="M 0127,0163 H 0143 V 0179 H 0127 Z "/>
            <path d="M 0143,0051 H 0159 V 0083 H 0143 Z "/>
            <path d="M 0143,0131 H 0175 V 0163 H 0159 V 0147 H 0143 Z "/>
            <path d="M 0159,0019 H 0175 V 0035 H 0191 V 0051 H 0159 Z "/>
            <path d="M 0175,0099 H 0191 V 0115 H 0175 Z "/>
            <path d="M 0191,0051 H 0207 V 0099 H 0191 Z "/>
            <path d="M 0191,0147 H 0239 V 0163 H 0191 Z "/>
            <path d="M 0191,0179 H 0239 V 0195 H 0191 Z "/>
          </g>
         <g transform="matrix(0.23661765,0,0,0.23661765,68.092743,101.8529)" id="mask">
           <path d="m 284.15,0 c -139.2,0 -252,7.1 -252,146.3 0,91.3 48.6,190.4 121.3,247.8 3.2,39.1&#10;                    33.9,70.399 72.8,74.3 v 14 h -10.9 c -21.9,0 -39.6,19.2 -39.6,42.899 0,23.7 17.8,43&#10;                    39.6,43 h 137.7 c 21.899,0 39.6,-19.199 39.6,-43 0,-23.699 -17.8,-42.899 -39.6,-42.899&#10;                    h -10.9 v -14 c 38.9,-3.9 69.6,-35.2 72.8,-74.3 72.601,-57.301 121.2,-156.4 121.2,-247.7&#10;                    C 536.15,7.2 423.35,0 284.15,0 Z m -98.7,306 c -47,0 -85.1,-86.7 -85.1,-133.7 0,-47 38.1,-85.1&#10;                    85.1,-85.1 47,0 85,38.1 85,85.1 0,47 -38,133.7 -85,133.7 z m 197.4,0 c -47,0 -85,-86.7&#10;                    -85,-133.7 0,-47 38.1,-85.1 85,-85.1 47,0 85.1,38.1 85.1,85.1 0,47 -38.1,133.7 -85.1,133.7 z"/>
         </g>
        </svg>